# xmcd CD database file generated by Grip 3.3.1
# 
# Track frame offsets:
#       150
#       17469
#       36601
#       75776
#       112002
#       138356
#       163350
#       188400
#       209664
#       244230
#       276095
#       304183
# 
# Disc length: 4432 seconds
# 
# Revision: 3
# Processed by: cddbd v1.5.2PL0 Copyright (c) Steve Scherf et al.
# Submitted via: Grip 3.3.1
# 
DISCID=a4114e0c
DTITLE=Various Artist - Festival international de Jazz de Montréal
DYEAR=2010
DGENRE=Jazz
TTITLE0=Nikki Yanofsky - Bienvenue dans ma vie
TTITLE1=Bobby McFerrin - Say Ladeo
TTITLE2=Christian Scott - Angola, La and the 13th Amendment
TTITLE3=David Sanborn - Only everything (for Genevieve)
TTITLE4=Roy Hargrove Big Band - Roy Allan
TTITLE5=John Scofield - It's a big army
TTITLE6=Roberta Gambarini - You ain't nohin' but a Jamf
TTITLE7=Taj Mahal - Never let you go
TTITLE8=Mike Stern - Big neighborhood
TTITLE9=The Dave Brubeck Quartet - Unisphere
TTITLE10=Daniel Mille - L'attente
TTITLE11=Nils Peter Molvær - Water
EXTD=YEAR: 2010
EXTT0=
EXTT1=
EXTT2=
EXTT3=
EXTT4=
EXTT5=
EXTT6=
EXTT7=
EXTT8=
EXTT9=
EXTT10=
EXTT11=
PLAYORDER=
